<?xml version="1.0" standalone="no"?>
<!DOCTYPE svg PUBLIC "-//W3C//DTD SVG 20010904//EN"
 "http://www.w3.org/TR/2001/REC-SVG-20010904/DTD/svg10.dtd">
<svg version="1.0" xmlns="http://www.w3.org/2000/svg"
 width="876.000000pt" height="185.000000pt" viewBox="0 0 876.000000 185.000000"
 preserveAspectRatio="xMidYMid meet">

<g transform="translate(0.000000,185.000000) scale(0.100000,-0.100000)"
fill="#ffff" stroke="none">
<path d="M1843 1578 c-6 -7 -41 -73 -77 -145 l-67 -133 69 -132 c38 -73 102
-195 141 -271 40 -75 69 -142 66 -147 -3 -6 -27 -10 -53 -10 l-47 0 -63 -123
c-34 -67 -62 -126 -62 -130 0 -4 84 -7 188 -7 l187 0 53 -105 52 -105 150 0
c82 0 150 3 150 6 0 6 -114 229 -260 509 -32 61 -137 265 -235 455 -98 190
-179 346 -180 348 -1 1 -7 -3 -12 -10z"/>
<path d="M3975 1551 c-68 -23 -116 -53 -160 -103 -139 -153 -120 -414 38 -535
37 -28 145 -78 152 -71 9 10 115 229 115 237 0 6 -18 15 -41 21 -69 19 -101
69 -83 132 28 96 168 93 189 -3 l7 -29 139 0 139 0 0 35 c0 91 -73 216 -158
272 -95 62 -233 80 -337 44z"/>
<path d="M6554 1550 c-255 -66 -450 -276 -498 -537 l-5 -33 139 0 c127 0 140
2 140 18 0 62 104 200 188 249 150 88 357 61 478 -63 37 -39 89 -127 108 -186
5 -16 21 -18 141 -18 92 0 135 4 135 11 0 29 -35 141 -64 204 -60 130 -187
255 -319 314 -134 61 -305 77 -443 41z"/>
<path d="M200 905 l0 -635 135 0 135 0 0 635 0 635 -135 0 -135 0 0 -635z"/>
<path d="M890 1414 c-50 -69 -94 -132 -96 -139 -5 -12 143 -224 157 -225 4 0
82 105 174 233 93 127 173 238 178 245 7 9 -25 12 -156 12 l-165 0 -92 -126z"/>
<path d="M2600 905 l0 -635 135 0 135 0 0 635 0 635 -135 0 -135 0 0 -635z"/>
<path d="M3024 1527 c-2 -7 -3 -65 -2 -128 l3 -114 91 -6 c50 -4 104 -14 121
-22 48 -25 71 -105 43 -156 -22 -42 -59 -56 -159 -61 l-96 -5 0 -130 0 -130
65 -3 c101 -5 215 14 272 45 129 70 206 214 196 366 -11 171 -131 311 -296
346 -76 16 -231 15 -238 -2z"/>
<path d="M4730 905 l0 -635 135 0 135 0 0 635 0 635 -135 0 -135 0 0 -635z"/>
<path d="M5580 905 l0 -635 135 0 135 0 0 635 0 635 -135 0 -135 0 0 -635z"/>
<path d="M7570 905 l0 -635 135 0 135 0 0 635 0 635 -135 0 -135 0 0 -635z"/>
<path d="M8000 1410 l0 -130 63 0 c34 -1 82 -5 107 -9 85 -17 125 -100 83
-172 -26 -44 -69 -59 -167 -59 l-86 0 0 -137 0 -136 118 6 c68 3 139 13 167
23 69 23 136 74 178 136 54 79 70 131 71 228 0 75 -4 93 -30 151 -76 161 -196
229 -406 229 l-98 0 0 -130z"/>
<path d="M604 1017 l-80 -113 234 -317 235 -317 241 0 241 0 145 285 145 285
-74 146 c-41 79 -77 141 -81 137 -4 -4 -77 -145 -163 -313 -214 -419 -209
-410 -217 -405 -4 2 -76 98 -161 212 -324 439 -379 513 -382 513 -1 0 -39 -51
-83 -113z"/>
<path d="M5110 905 l0 -135 174 0 175 0 3 131 c2 72 1 133 -1 135 -2 2 -82 4
-178 4 l-173 0 0 -135z"/>
<path d="M4220 910 l-60 -120 30 -15 c90 -47 93 -193 6 -250 -35 -23 -97 -30
-140 -15 -43 14 -72 48 -86 101 l-11 39 -135 0 -135 0 6 -37 c28 -163 102
-271 230 -333 90 -44 168 -56 252 -41 145 26 247 101 310 229 37 75 38 78 38
191 0 107 -2 121 -28 173 -29 60 -121 154 -178 182 -18 9 -34 16 -35 16 -2 0
-31 -54 -64 -120z"/>
<path d="M6056 793 c19 -87 29 -116 66 -192 32 -68 57 -101 122 -167 108 -107
220 -165 374 -191 97 -17 107 -17 202 0 268 45 466 224 541 486 10 36 19 72
19 78 0 10 -34 13 -140 13 -127 0 -140 -2 -140 -17 0 -33 -47 -118 -93 -169
-25 -28 -74 -66 -109 -85 -62 -33 -65 -34 -183 -34 -112 0 -123 2 -174 28 -78
42 -143 107 -179 182 -18 35 -32 71 -32 80 0 13 -21 15 -140 15 l-140 0 6 -27z"/>
<path d="M3337 689 c-27 -11 -82 -22 -123 -26 -46 -4 -74 -10 -74 -18 0 -6 29
-92 64 -191 l63 -179 142 -3 c77 -1 141 1 141 5 0 20 -149 427 -156 430 -5 1
-31 -7 -57 -18z"/>
</g>
</svg>
